<svg width="338" height="338" viewBox="0 0 338 338" fill="none" xmlns="http://www.w3.org/2000/svg">
<path d="M113.02 48.6179C113.02 48.6179 61.7999 74.7115 36.2539 114.92C10.7078 155.129 12.7291 206.856 43.771 245.253C74.8129 283.65 134.145 278.607 183.825 302.929C233.504 327.252 288.314 322.242 311.805 270.711C335.296 219.18 299.874 199.92 293.79 140.284C287.706 80.6468 233.943 -6.67887 113.02 48.6179Z" fill="#0042C1"/>
<path opacity="0.7" d="M113.02 48.6179C113.02 48.6179 61.7999 74.7115 36.2539 114.92C10.7078 155.129 12.7291 206.856 43.771 245.253C74.8129 283.65 134.145 278.607 183.825 302.929C233.504 327.252 288.314 322.242 311.805 270.711C335.296 219.18 299.874 199.92 293.79 140.284C287.706 80.6468 233.943 -6.67887 113.02 48.6179Z" fill="white"/>
<path d="M83.486 255.852C85.514 255.176 89.1103 251.871 89.1103 251.864C89.1103 251.857 86.217 250.181 86.021 250.1C83.7428 249.14 78.7742 248.626 76.9693 250.728C76.6838 251.086 76.4762 251.499 76.3598 251.942C76.2434 252.385 76.2208 252.847 76.2933 253.299C76.3659 253.75 76.532 254.182 76.7812 254.566C77.0303 254.95 77.3568 255.278 77.74 255.528C79.3353 256.664 81.7284 256.42 83.486 255.852Z" fill="#9C9C9C"/>
<path d="M120.943 223.986C120.99 223.986 119.456 220.991 119.334 220.809C117.982 218.781 114.102 215.583 111.439 216.34C110.999 216.478 110.594 216.707 110.249 217.012C109.904 217.317 109.627 217.691 109.436 218.11C109.245 218.528 109.144 218.983 109.139 219.443C109.135 219.903 109.227 220.359 109.411 220.782C110.134 222.593 112.263 223.715 114.048 224.209C116.144 224.79 120.936 223.993 120.943 223.986Z" fill="#9C9C9C"/>
<path d="M94.0924 265.256C95.8365 264.113 98.2431 260.294 98.4324 259.99C100.614 261.37 102.886 262.603 105.233 263.68C106.585 264.316 107.991 264.918 109.397 265.499C108.721 265.323 108.106 265.181 108.045 265.168C105.591 264.843 100.663 265.661 99.4802 268.162C99.2947 268.585 99.2006 269.042 99.2038 269.503C99.2071 269.965 99.3078 270.42 99.4992 270.84C99.6906 271.26 99.9685 271.635 100.315 271.94C100.661 272.245 101.068 272.473 101.508 272.61C103.347 273.286 105.564 272.401 107.139 271.387C108.714 270.373 110.823 267.135 111.371 266.276L112.993 266.952C115.596 267.987 118.192 268.98 120.713 270.089C121.599 270.468 122.457 270.88 123.323 271.279C122.714 271.13 122.207 271.008 122.126 271.002C119.672 270.677 114.751 271.495 113.561 273.996C113.376 274.418 113.282 274.875 113.285 275.336C113.288 275.797 113.389 276.252 113.581 276.671C113.772 277.09 114.05 277.465 114.396 277.769C114.742 278.073 115.149 278.301 115.589 278.438C117.435 279.114 119.679 278.228 121.22 277.214C122.762 276.2 124.695 273.28 125.357 272.266C126.223 272.705 127.095 273.145 127.919 273.618C128.474 273.949 129.035 274.226 129.576 274.591L131.185 275.625C132.178 276.301 133.213 277.032 134.172 277.735C134.848 278.221 135.47 278.694 136.106 279.168C135.227 278.782 133.49 278.052 133.334 278.012C130.961 277.336 125.966 277.383 124.418 279.675C124.17 280.063 124.006 280.498 123.938 280.954C123.87 281.409 123.899 281.874 124.023 282.317C124.147 282.76 124.363 283.173 124.657 283.527C124.951 283.881 125.316 284.17 125.729 284.373C127.446 285.299 129.785 284.785 131.482 284.015C133.327 283.17 136.214 279.905 136.538 279.492C137.586 280.283 138.6 281.06 139.54 281.811C142.284 283.981 144.569 285.934 146.3 287.462L147.652 286.232C145.84 284.704 143.42 282.717 140.507 280.513C139.445 279.708 138.296 278.863 137.127 278.012C137.751 276.763 138.301 275.478 138.776 274.165C140.851 274.375 144.759 273.3 145.266 273.158C145.705 274.395 146.117 275.605 146.489 276.748C147.557 280.013 148.375 282.832 148.977 285.069L150.491 283.717C149.862 281.628 149.051 279.08 148.044 276.207C147.605 274.949 147.111 273.618 146.584 272.252C147.05 271.989 150.809 269.798 151.992 268.149C153.067 266.648 154.02 264.438 153.438 262.565C153.316 262.122 153.102 261.71 152.81 261.355C152.518 261 152.154 260.71 151.743 260.505C151.333 260.299 150.883 260.182 150.424 260.16C149.965 260.139 149.506 260.215 149.078 260.382C146.53 261.47 145.516 266.357 145.739 268.818C145.739 268.967 146.077 270.528 146.293 271.522C146.077 270.961 145.874 270.42 145.617 269.852C145.171 268.717 144.691 267.601 144.184 266.398C143.914 265.823 143.65 265.249 143.373 264.667C143.096 264.086 142.771 263.498 142.467 262.903C141.744 261.551 140.939 260.199 140.094 258.847C141.088 258.455 144.583 257.008 145.881 255.683C147.179 254.358 148.45 252.303 148.152 250.39C148.1 249.934 147.952 249.493 147.718 249.097C147.484 248.701 147.169 248.359 146.794 248.093C146.419 247.827 145.992 247.643 145.541 247.553C145.09 247.464 144.626 247.47 144.177 247.571C141.473 248.247 139.749 252.939 139.601 255.406C139.601 255.555 139.682 257.34 139.749 258.32C139.236 257.522 138.729 256.724 138.188 255.934C136.62 253.655 134.957 251.398 133.314 249.14C132.807 248.464 132.313 247.754 131.82 247.058C132.172 246.922 136.363 245.293 137.816 243.813C139.107 242.461 140.385 240.433 140.094 238.513C140.041 238.056 139.892 237.615 139.658 237.219C139.423 236.824 139.108 236.482 138.732 236.216C138.356 235.95 137.929 235.766 137.478 235.676C137.027 235.586 136.561 235.592 136.113 235.694C133.409 236.37 131.685 241.062 131.536 243.529C131.536 243.718 131.658 246.28 131.725 246.909C130.63 245.374 129.555 243.84 128.555 242.285C127.191 240.194 125.967 238.015 124.891 235.762C125.053 235.701 129.434 234.018 130.921 232.497C132.212 231.145 133.49 229.117 133.199 227.204C133.147 226.747 132.999 226.306 132.765 225.91C132.531 225.514 132.216 225.172 131.841 224.906C131.466 224.64 131.039 224.457 130.588 224.367C130.137 224.277 129.673 224.283 129.224 224.385C126.52 225.061 124.796 229.752 124.648 232.219C124.648 232.382 124.736 234.335 124.803 235.261L124.654 235.302C123.626 233.008 122.807 230.625 122.207 228.184C121.863 226.832 121.606 225.541 121.383 224.276C122.228 224.047 126.115 222.958 127.588 221.735C129.062 220.511 130.509 218.672 130.434 216.719C130.43 216.259 130.33 215.805 130.14 215.386C129.949 214.967 129.673 214.593 129.329 214.288C128.985 213.983 128.581 213.753 128.142 213.614C127.704 213.475 127.241 213.43 126.784 213.481C124.046 213.866 121.795 218.328 121.376 220.768C121.376 220.896 121.268 222.269 121.22 223.269C121.132 222.695 121.024 222.106 120.95 221.552C120.659 219.477 120.517 217.564 120.402 215.867C120.348 214.9 120.321 214.022 120.301 213.204C121.011 212.528 123.863 209.824 124.607 208.113C125.351 206.403 125.79 204.057 124.823 202.354C124.609 201.946 124.312 201.588 123.95 201.303C123.588 201.018 123.171 200.812 122.724 200.7C122.278 200.587 121.813 200.569 121.359 200.648C120.905 200.727 120.474 200.9 120.091 201.157C117.834 202.766 117.894 207.762 118.645 210.121C118.712 210.324 120.085 213.393 120.125 213.359L120.166 213.318C120.166 214.103 120.166 214.948 120.22 215.874C120.294 217.577 120.389 219.504 120.639 221.593C120.883 223.843 121.257 226.078 121.761 228.285C122.313 230.763 123.087 233.186 124.073 235.525L124.114 235.606C123.586 234.991 122.052 233.321 121.917 233.206C120.051 231.584 115.488 229.549 113.129 230.982C112.741 231.231 112.411 231.558 112.158 231.943C111.906 232.327 111.738 232.761 111.664 233.215C111.591 233.669 111.614 234.134 111.733 234.579C111.851 235.023 112.062 235.438 112.351 235.795C113.527 237.357 115.873 237.878 117.725 237.884C119.807 237.884 123.918 236.025 124.249 235.856C125.307 238.213 126.522 240.496 127.886 242.691C128.67 243.968 129.501 245.239 130.353 246.497C129.88 245.983 129.454 245.523 129.386 245.462C127.521 243.847 122.958 241.805 120.598 243.238C120.211 243.487 119.88 243.814 119.628 244.199C119.376 244.583 119.207 245.017 119.134 245.471C119.061 245.925 119.084 246.39 119.202 246.835C119.321 247.279 119.532 247.694 119.821 248.051C120.99 249.62 123.343 250.133 125.195 250.14C127.047 250.147 130.603 248.626 131.536 248.214C131.867 248.694 132.212 249.18 132.53 249.66C134.125 251.952 135.727 254.244 137.262 256.528C137.796 257.34 138.289 258.151 138.783 258.962C138.364 258.502 138.005 258.124 137.945 258.07C136.079 256.447 131.516 254.413 129.157 255.846C128.77 256.095 128.44 256.422 128.188 256.807C127.936 257.192 127.769 257.626 127.696 258.08C127.623 258.534 127.647 258.999 127.766 259.443C127.885 259.887 128.096 260.302 128.386 260.659C129.555 262.22 131.908 262.741 133.753 262.748C135.599 262.754 138.823 261.396 139.932 260.895C140.419 261.74 140.905 262.585 141.331 263.43C141.615 264.012 141.926 264.553 142.17 265.154C142.413 265.756 142.69 266.33 142.94 266.905C143.393 268.041 143.86 269.203 144.292 270.319C144.583 271.089 144.847 271.833 145.11 272.577C144.596 271.765 143.542 270.204 143.44 270.082C141.967 268.474 140.105 267.273 138.032 266.594C137.878 266.406 137.706 266.234 137.519 266.08C137.173 265.778 136.767 265.551 136.328 265.415C135.888 265.28 135.426 265.238 134.969 265.293C134.513 265.348 134.073 265.498 133.678 265.734C133.284 265.969 132.943 266.286 132.679 266.662C131.151 268.974 133.003 273.611 134.551 275.544C134.639 275.659 135.768 276.781 136.491 277.478L134.963 276.484C133.97 275.808 132.935 275.132 131.867 274.395L130.238 273.395C129.697 273.05 129.089 272.752 128.508 272.428C127.156 271.698 125.743 271.022 124.31 270.4C124.918 269.528 127.014 266.398 127.385 264.573C127.757 262.748 127.669 260.355 126.365 258.901C126.068 258.55 125.701 258.264 125.287 258.064C124.873 257.863 124.422 257.752 123.962 257.737C123.503 257.723 123.045 257.805 122.619 257.979C122.193 258.152 121.809 258.414 121.491 258.746C119.632 260.774 120.761 265.661 121.991 267.804C122.072 267.939 123.127 269.372 123.728 270.15C122.863 269.771 121.998 269.386 121.112 269.028C118.543 267.993 115.914 267 113.298 266.046C112.493 265.749 111.695 265.438 110.898 265.134C111.121 264.83 113.717 261.159 114.109 259.117C114.46 257.306 114.399 254.899 113.088 253.446C112.792 253.094 112.425 252.809 112.011 252.608C111.597 252.408 111.145 252.297 110.686 252.282C110.226 252.267 109.768 252.349 109.343 252.523C108.917 252.697 108.532 252.958 108.214 253.29C106.355 255.318 107.484 260.206 108.721 262.349C108.809 262.511 110.337 264.573 110.749 265.053C108.991 264.377 107.247 263.701 105.551 262.95C103.26 261.959 101.038 260.816 98.8988 259.53C99.0002 259.388 101.731 255.568 102.13 253.48C102.475 251.668 102.414 249.261 101.109 247.808C100.813 247.456 100.446 247.171 100.032 246.97C99.6181 246.77 99.1666 246.659 98.707 246.644C98.2473 246.629 97.7897 246.712 97.3639 246.885C96.9381 247.059 96.5536 247.321 96.2353 247.653C94.3763 249.681 95.5053 254.568 96.7356 256.711C96.8167 256.853 97.9794 258.428 98.554 259.165L98.4459 259.28C96.3254 257.931 94.33 256.395 92.4835 254.69C91.4493 253.764 90.5164 252.824 89.6308 251.884C90.2122 251.208 92.8351 248.187 93.4097 246.341C93.9843 244.496 94.1533 242.177 93.0176 240.595C92.7598 240.214 92.4249 239.891 92.0345 239.648C91.6441 239.404 91.2069 239.246 90.7513 239.182C90.2956 239.118 89.8316 239.151 89.3894 239.278C88.9472 239.405 88.5366 239.623 88.1842 239.919C86.1156 241.758 86.7037 246.72 87.6907 248.984C87.7448 249.106 88.4343 250.296 88.9481 251.154C88.556 250.728 88.1436 250.296 87.7718 249.877C86.4198 248.308 85.2098 246.787 84.1823 245.428C83.6009 244.651 83.0939 243.941 82.6207 243.272C82.8573 242.326 83.7496 238.506 83.4116 236.647C83.0736 234.788 82.1543 232.591 80.4102 231.726C80.0076 231.505 79.5629 231.37 79.1051 231.332C78.6472 231.294 78.1865 231.353 77.7528 231.505C77.3192 231.657 76.9224 231.898 76.5882 232.213C76.2541 232.529 75.9901 232.911 75.8134 233.335C74.8197 235.917 77.6251 240.048 79.5449 241.602C79.7139 241.738 82.5531 243.536 82.5666 243.488C82.5681 243.468 82.5681 243.448 82.5666 243.428C83.006 244.104 83.486 244.78 84.02 245.537C85.0205 246.889 86.1697 248.47 87.5285 250.073C88.9756 251.816 90.5216 253.475 92.1591 255.041C93.9878 256.789 95.9671 258.373 98.0741 259.773L98.1552 259.821C97.3778 259.597 95.174 259.05 94.9983 259.03C92.5444 258.705 87.6231 259.523 86.4333 262.024C86.2479 262.447 86.1538 262.904 86.157 263.365C86.1603 263.827 86.261 264.282 86.4524 264.702C86.6438 265.122 86.9217 265.497 87.2679 265.802C87.6141 266.107 88.0208 266.335 88.4613 266.472C90.3068 267.135 92.5511 266.276 94.0924 265.256Z" fill="#9C9C9C"/>
<path d="M220.565 93.7679C222.012 96.188 227.224 99.737 227.231 99.737C227.237 99.737 228.529 95.5931 228.583 95.316C229.137 92.1591 228.353 85.7235 225.203 84.0471C224.667 83.783 224.082 83.6346 223.486 83.6115C222.889 83.5884 222.295 83.6911 221.741 83.913C221.187 84.1349 220.685 84.471 220.27 84.8994C219.854 85.3278 219.533 85.839 219.328 86.3995C218.348 88.752 219.335 91.7129 220.565 93.7679Z" fill="#9C9C9C"/>
<path d="M271.678 131.989C271.678 132.05 275.058 129.244 275.24 129.042C277.451 126.709 280.344 120.93 278.62 117.759C278.319 117.243 277.913 116.797 277.428 116.449C276.943 116.1 276.39 115.858 275.806 115.737C275.221 115.617 274.617 115.621 274.034 115.749C273.451 115.877 272.901 116.127 272.421 116.482C270.332 117.921 269.528 120.936 269.413 123.329C269.285 126.142 271.678 131.982 271.678 131.989Z" fill="#9C9C9C"/>
<path d="M211.716 109.904C213.67 111.777 219.2 113.723 219.639 113.872C218.524 117.033 217.62 120.265 216.935 123.546C216.523 125.452 216.165 127.392 215.833 129.339C215.833 128.426 215.833 127.609 215.833 127.494C215.536 124.303 213.082 118.3 209.574 117.523C208.987 117.408 208.383 117.419 207.801 117.554C207.219 117.689 206.672 117.945 206.196 118.305C205.72 118.665 205.324 119.122 205.036 119.645C204.748 120.169 204.574 120.747 204.524 121.342C204.226 123.863 205.97 126.459 207.701 128.102C209.432 129.745 214.137 131.543 215.38 131.989C215.259 132.733 215.13 133.483 215.015 134.227C214.454 137.816 213.913 141.399 213.271 144.901C213.048 146.131 212.778 147.341 212.514 148.551C212.514 147.74 212.514 147.057 212.514 146.956C212.217 143.758 209.763 137.762 206.254 136.978C205.668 136.865 205.064 136.876 204.483 137.012C203.901 137.148 203.355 137.405 202.879 137.766C202.403 138.127 202.009 138.584 201.722 139.107C201.434 139.631 201.26 140.209 201.211 140.804C200.914 143.319 202.651 145.915 204.382 147.564C206.112 149.213 210.364 150.822 211.818 151.363C211.514 152.593 211.209 153.824 210.858 155C210.594 155.798 210.405 156.582 210.101 157.373L209.249 159.705C208.661 161.165 208.059 162.679 207.444 164.099C207.025 165.079 206.606 166.012 206.187 166.952C206.423 165.728 206.863 163.322 206.863 163.119C207.052 159.915 205.511 153.614 202.185 152.303C201.622 152.101 201.023 152.02 200.428 152.066C199.832 152.111 199.252 152.282 198.726 152.566C198.201 152.851 197.741 153.243 197.377 153.717C197.013 154.191 196.753 154.736 196.615 155.318C195.939 157.758 197.291 160.591 198.724 162.49C200.333 164.586 205.288 167.263 205.91 167.594C205.234 169.142 204.517 170.649 203.841 172.056C201.881 176.159 200.069 179.606 198.636 182.25L200.589 183.642C202.009 180.938 203.821 177.281 205.768 172.955C206.484 171.38 207.221 169.683 207.958 167.932C209.717 168.366 211.5 168.694 213.298 168.912C213.636 171.616 216.117 176.24 216.442 176.835C215.002 177.747 213.596 178.619 212.25 179.417C208.431 181.716 205.071 183.568 202.442 184.967L204.571 186.488C207.039 185.096 210.026 183.338 213.359 181.236C214.826 180.316 216.374 179.302 217.949 178.248C218.416 178.761 222.269 182.885 224.709 183.913C226.92 184.839 229.989 185.413 232.186 184.136C232.713 183.855 233.175 183.466 233.541 182.995C233.908 182.523 234.171 181.98 234.313 181.4C234.455 180.82 234.474 180.217 234.367 179.629C234.26 179.042 234.03 178.484 233.693 177.991C231.584 175.077 225.108 175.206 222.052 176.199C221.877 176.26 219.991 177.112 218.814 177.673C219.457 177.24 220.085 176.821 220.741 176.368C222.046 175.476 223.323 174.55 224.696 173.563L226.656 172.042C227.332 171.542 227.961 170.94 228.623 170.386C230.131 169.074 231.598 167.682 233.037 166.222C233.822 167.357 236.661 171.366 238.709 172.623C240.757 173.881 243.705 174.908 246.064 173.975C246.628 173.777 247.143 173.463 247.577 173.053C248.011 172.642 248.354 172.145 248.583 171.593C248.812 171.042 248.922 170.448 248.906 169.851C248.89 169.254 248.749 168.667 248.491 168.128C246.848 164.93 240.419 164.072 237.256 164.592C237.06 164.626 234.829 165.268 233.612 165.62C234.471 164.748 235.336 163.876 236.174 162.957C238.608 160.32 240.987 157.549 243.367 154.845C244.097 154.006 244.84 153.182 245.571 152.357C245.848 152.762 249.113 157.596 251.411 159.009C253.439 160.259 256.407 161.294 258.773 160.361C259.336 160.162 259.851 159.847 260.284 159.437C260.717 159.026 261.059 158.528 261.287 157.977C261.516 157.425 261.625 156.832 261.609 156.235C261.593 155.638 261.451 155.052 261.193 154.513C259.55 151.316 253.121 150.457 249.958 150.978C249.721 151.012 246.51 151.924 245.706 152.195C247.328 150.369 248.957 148.565 250.641 146.847C252.897 144.522 255.302 142.345 257.84 140.331C257.968 140.52 261.355 145.583 263.708 147.03C265.736 148.281 268.703 149.308 271.069 148.382C271.632 148.183 272.147 147.869 272.58 147.458C273.013 147.047 273.355 146.55 273.584 145.998C273.812 145.447 273.922 144.853 273.905 144.256C273.889 143.66 273.747 143.073 273.489 142.535C271.847 139.337 265.418 138.479 262.254 139.006C262.045 139.006 259.604 139.729 258.448 140.081L258.354 139.898C260.965 137.94 263.745 136.219 266.662 134.754C268.257 133.929 269.825 133.233 271.394 132.584C271.928 133.591 274.422 138.168 276.396 139.702C278.37 141.237 281.128 142.521 283.562 141.859C284.143 141.723 284.689 141.467 285.164 141.106C285.64 140.746 286.034 140.29 286.322 139.767C286.61 139.244 286.784 138.666 286.834 138.072C286.883 137.477 286.807 136.879 286.61 136.315C285.326 132.935 279.039 131.394 275.835 131.583C275.659 131.583 273.895 131.888 272.617 132.111C273.293 131.833 274.037 131.529 274.713 131.272C277.255 130.306 279.634 129.576 281.757 128.947C282.96 128.595 284.062 128.271 285.089 128.041C286.131 128.758 290.356 131.59 292.776 132.03C295.196 132.469 298.258 132.361 300.124 130.644C300.577 130.256 300.944 129.776 301.2 129.237C301.456 128.697 301.596 128.11 301.61 127.513C301.624 126.916 301.512 126.323 301.282 125.772C301.051 125.222 300.707 124.725 300.272 124.316C297.568 121.93 291.288 123.444 288.524 125.067C288.28 125.209 284.799 127.838 284.853 127.879L284.914 127.919C283.92 128.149 282.852 128.413 281.689 128.717C279.56 129.305 277.146 129.988 274.578 130.901C271.797 131.869 269.075 132.998 266.425 134.281C263.451 135.695 260.608 137.369 257.928 139.283L257.84 139.357C258.462 138.512 260.138 136.092 260.246 135.89C261.761 133.057 263.025 126.703 260.53 124.114C260.103 123.697 259.593 123.375 259.033 123.168C258.473 122.96 257.876 122.873 257.28 122.911C256.684 122.95 256.103 123.112 255.574 123.389C255.045 123.666 254.581 124.051 254.21 124.519C252.574 126.459 252.594 129.582 253.121 131.921C253.716 134.558 257.252 139.229 257.536 139.601C254.86 141.62 252.321 143.815 249.937 146.171C248.538 147.523 247.179 148.957 245.827 150.396C246.348 149.646 246.801 148.97 246.855 148.869C248.369 146.043 249.633 139.682 247.139 137.1C246.713 136.681 246.204 136.357 245.644 136.149C245.084 135.941 244.487 135.853 243.891 135.891C243.295 135.929 242.714 136.093 242.186 136.371C241.658 136.649 241.194 137.036 240.825 137.505C239.182 139.439 239.203 142.562 239.73 144.901C240.257 147.24 243.205 151.323 243.995 152.377L242.454 154.047C240.007 156.751 237.58 159.421 235.113 161.983C234.248 162.889 233.355 163.747 232.47 164.613C232.929 163.937 233.315 163.382 233.362 163.261C234.876 160.435 236.14 154.074 233.646 151.492C233.219 151.074 232.71 150.75 232.15 150.542C231.59 150.333 230.993 150.245 230.397 150.283C229.801 150.32 229.219 150.483 228.69 150.76C228.161 151.037 227.696 151.422 227.325 151.89C225.689 153.831 225.71 156.954 226.237 159.293C226.764 161.632 229.421 165.316 230.361 166.58C229.428 167.432 228.495 168.29 227.548 169.081C226.872 169.602 226.298 170.149 225.608 170.643L223.614 172.116C222.316 173.015 220.978 173.942 219.686 174.787C218.787 175.375 217.929 175.922 217.057 176.477C217.936 175.584 219.612 173.806 219.761 173.644C221.369 171.322 222.355 168.627 222.627 165.816C222.818 165.566 222.986 165.299 223.127 165.018C223.411 164.493 223.58 163.913 223.625 163.317C223.67 162.722 223.589 162.124 223.388 161.561C223.186 160.999 222.869 160.485 222.456 160.054C222.043 159.622 221.544 159.282 220.991 159.056C217.611 157.792 212.291 161.469 210.297 163.984C210.175 164.133 209.08 165.884 208.404 166.999C208.701 166.282 208.999 165.593 209.296 164.849C209.891 163.389 210.446 161.916 211.04 160.327C211.304 159.55 211.574 158.765 211.838 157.974C212.102 157.184 212.318 156.339 212.568 155.514C213.102 153.58 213.548 151.607 213.954 149.599C215.232 150.119 219.808 151.897 222.215 151.816C224.621 151.735 227.623 150.964 229.103 148.889C229.463 148.413 229.719 147.866 229.853 147.284C229.988 146.702 229.998 146.099 229.884 145.513C229.77 144.927 229.534 144.371 229.191 143.883C228.848 143.394 228.406 142.983 227.893 142.677C224.763 140.912 218.929 143.745 216.577 145.921C216.428 146.063 214.914 147.814 214.103 148.794C214.333 147.591 214.576 146.388 214.779 145.157C215.347 141.608 215.813 138.005 216.3 134.409C216.442 133.307 216.604 132.212 216.759 131.117C217.212 131.306 222.607 133.537 225.304 133.442C227.697 133.361 230.712 132.591 232.186 130.515C232.546 130.039 232.802 129.493 232.937 128.911C233.072 128.33 233.083 127.727 232.97 127.141C232.856 126.555 232.621 125.999 232.278 125.51C231.936 125.021 231.494 124.61 230.982 124.303C227.846 122.545 222.012 125.371 219.659 127.554C219.484 127.717 217.307 130.258 216.786 130.934C217.131 128.521 217.462 126.115 217.949 123.755C218.555 120.568 219.366 117.422 220.376 114.339C220.586 114.427 226.203 116.786 228.968 116.691C231.361 116.603 234.376 115.839 235.85 113.764C236.21 113.288 236.466 112.741 236.601 112.159C236.736 111.577 236.748 110.973 236.634 110.386C236.521 109.8 236.285 109.244 235.942 108.754C235.6 108.265 235.158 107.853 234.646 107.545C231.51 105.787 225.683 108.613 223.323 110.796C223.168 110.938 221.512 112.865 220.741 113.798L220.565 113.696C221.65 110.625 223.007 107.657 224.621 104.827C225.5 103.259 226.419 101.806 227.325 100.413C228.326 100.961 232.929 103.401 235.437 103.597C237.83 103.773 240.92 103.34 242.603 101.441C243.013 101.007 243.327 100.491 243.524 99.9278C243.722 99.3645 243.799 98.7659 243.75 98.1709C243.7 97.5759 243.527 96.998 243.239 96.4747C242.952 95.9513 242.558 95.4943 242.082 95.1335C239.162 93.0379 233.058 95.2078 230.475 97.1209C230.34 97.2223 229.029 98.4323 228.089 99.3314C228.515 98.7095 228.948 98.0605 229.374 97.4724C230.955 95.2687 232.544 93.3421 233.957 91.6453C234.775 90.6922 235.532 89.8404 236.242 89.0562C237.506 89.0562 242.596 89.1103 244.854 88.1436C247.112 87.1769 249.586 85.3923 250.221 82.9317C250.386 82.3566 250.427 81.7533 250.342 81.1613C250.257 80.5692 250.049 80.0017 249.73 79.4958C249.411 78.9898 248.989 78.5569 248.491 78.2252C247.993 77.8936 247.431 77.6706 246.841 77.571C243.286 77.0572 238.865 81.8027 237.452 84.6825C237.33 84.9326 235.877 89.0495 235.938 89.0495H236.019C235.343 89.7931 234.565 90.5975 233.768 91.4966C232.314 93.1595 230.678 95.0591 229.036 97.2358C227.244 99.5692 225.59 102.005 224.08 104.53C222.381 107.35 220.935 110.316 219.761 113.392L219.72 113.507C219.781 112.453 219.835 109.512 219.815 109.282C219.517 106.085 217.064 100.089 213.555 99.3111C212.969 99.1981 212.366 99.2096 211.785 99.3449C211.204 99.4802 210.658 99.7363 210.182 100.097C209.707 100.457 209.312 100.913 209.024 101.436C208.737 101.959 208.562 102.536 208.512 103.131C208.249 105.652 209.986 108.248 211.716 109.904Z" fill="#9C9C9C"/>
<path d="M252.601 228.9V226.636C252.601 214.975 267.365 214.468 267.365 206.166C267.365 202.563 264.431 200.211 260.064 200.211C255.285 200.211 252.263 202.814 252.263 206.504V207.431C252.263 208.35 251.763 208.783 250.837 208.783L241.866 208.445C241.028 208.445 240.44 208.025 240.44 207.444V206.518C240.44 196.378 248.491 189.408 260.321 189.408C271.894 189.408 279.357 195.952 279.357 205.761C279.357 219.686 264.343 219.774 264.343 227.393V228.9C264.366 229.093 264.345 229.289 264.281 229.472C264.217 229.656 264.113 229.822 263.976 229.959C263.838 230.097 263.672 230.201 263.488 230.265C263.305 230.328 263.11 230.35 262.917 230.327H254.027C253.834 230.35 253.639 230.328 253.456 230.265C253.272 230.201 253.106 230.097 252.968 229.959C252.831 229.822 252.727 229.656 252.663 229.472C252.599 229.289 252.578 229.093 252.601 228.9ZM251.844 242.42C251.844 238.729 255.116 235.708 259.057 235.708C262.836 235.708 266.189 238.729 266.189 242.42C266.189 246.111 262.809 249.133 258.976 249.133C255.143 249.133 251.844 246.098 251.844 242.407V242.42Z" fill="#263238"/>
<path d="M75.3538 132.841V130.874C75.3538 120.734 88.1978 120.308 88.1978 113.095C88.1978 109.958 85.6492 107.923 81.8636 107.923C77.7062 107.923 75.1036 110.181 75.1036 113.386V114.19C75.1036 114.988 74.671 115.353 73.8666 115.353L66.0723 115.062C65.3422 115.062 64.8352 114.697 64.8352 114.19V113.386C64.8352 104.598 71.825 98.5135 82.1002 98.5135C92.1524 98.5135 98.642 104.199 98.642 112.71C98.642 124.803 85.5952 124.878 85.5952 131.509V132.821C85.6147 132.988 85.5961 133.157 85.5408 133.316C85.4855 133.475 85.395 133.619 85.276 133.738C85.157 133.857 85.0126 133.948 84.8536 134.003C84.6947 134.059 84.5252 134.077 84.3581 134.058H76.5908C76.4256 134.077 76.2581 134.058 76.1008 134.004C75.9435 133.95 75.8003 133.861 75.6817 133.745C75.5631 133.628 75.4721 133.486 75.4153 133.33C75.3586 133.174 75.3376 133.006 75.3538 132.841ZM74.6778 144.569C74.6778 141.365 77.517 138.742 80.9375 138.742C84.2161 138.742 87.1364 141.365 87.1364 144.569C87.1364 147.774 84.2161 150.397 80.8699 150.397C79.2803 150.437 77.7393 149.847 76.5831 148.755C75.4269 147.663 74.7493 146.159 74.698 144.569H74.6778Z" fill="#0042C1"/>
<path d="M238.513 55.2698V54.2761C238.513 49.1588 244.989 48.9357 244.989 45.2921C244.989 43.7102 243.698 42.6759 241.785 42.6759C239.689 42.6759 238.364 43.8184 238.364 45.4408V45.8464C238.364 46.252 238.141 46.4345 237.736 46.4345L233.801 46.2858C233.43 46.2858 233.173 46.1033 233.173 45.8464V45.4408C233.173 40.9859 236.708 37.9304 241.9 37.9304C246.977 37.9304 250.255 40.8034 250.255 45.1095C250.255 51.1935 243.664 51.2544 243.664 54.5735V55.2495C243.674 55.3342 243.665 55.42 243.637 55.5005C243.608 55.5809 243.562 55.6539 243.502 55.7138C243.441 55.7738 243.368 55.8191 243.287 55.8464C243.206 55.8738 243.12 55.8823 243.036 55.8715H239.135C239.053 55.882 238.969 55.8738 238.89 55.8476C238.811 55.8214 238.739 55.7777 238.68 55.72C238.62 55.6622 238.574 55.5918 238.545 55.5139C238.516 55.4359 238.505 55.3525 238.513 55.2698ZM238.182 61.1983C238.138 60.5663 238.286 59.9357 238.606 59.3888C238.926 58.8418 239.403 58.4037 239.975 58.1314C240.547 57.8592 241.188 57.7654 241.814 57.8622C242.44 57.959 243.022 58.242 243.486 58.6743C243.949 59.1066 244.271 59.6683 244.411 60.2863C244.55 60.9043 244.501 61.55 244.268 62.1395C244.036 62.7289 243.632 63.2349 243.108 63.5914C242.585 63.948 241.966 64.1388 241.332 64.1389C240.932 64.1534 240.533 64.0887 240.158 63.9486C239.783 63.8086 239.439 63.5958 239.146 63.3226C238.854 63.0494 238.618 62.7212 238.452 62.3566C238.287 61.9921 238.195 61.5985 238.182 61.1983Z" fill="#0042C1"/>
<path d="M48.672 191.984V190.733C48.672 184.284 56.8381 184.007 56.8381 179.41C56.8381 177.416 55.2157 176.118 52.7821 176.118C50.1389 176.118 48.4692 177.558 48.4692 179.6V180.107C48.4692 180.621 48.1921 180.85 47.6783 180.85L42.7165 180.668C42.25 180.668 41.9255 180.431 41.9255 180.107V179.6C41.9255 173.989 46.3804 170.136 52.9241 170.136C59.3258 170.136 63.4494 173.752 63.4494 179.181C63.4494 186.88 55.1481 186.928 55.1481 191.153V191.984C55.1612 192.091 55.1498 192.2 55.1147 192.302C55.0796 192.404 55.0217 192.496 54.9455 192.572C54.8692 192.649 54.7766 192.706 54.6747 192.742C54.5728 192.777 54.4642 192.788 54.3572 192.775H49.4494C49.3435 192.786 49.2364 192.773 49.1362 192.737C49.036 192.701 48.9452 192.642 48.8705 192.566C48.7958 192.491 48.7392 192.399 48.7049 192.298C48.6705 192.197 48.6593 192.09 48.672 191.984V191.984ZM48.2529 199.454C48.2 198.657 48.388 197.864 48.7926 197.176C49.1972 196.487 49.7995 195.937 50.5212 195.596C51.2429 195.255 52.0505 195.14 52.8389 195.264C53.6273 195.389 54.36 195.747 54.9416 196.294C55.5231 196.841 55.9266 197.55 56.0995 198.329C56.2724 199.108 56.2067 199.922 55.911 200.663C55.6153 201.404 55.1032 202.04 54.4414 202.486C53.7797 202.932 52.9989 203.169 52.2007 203.165C51.1834 203.198 50.1946 202.825 49.4518 202.13C48.709 201.434 48.2729 200.471 48.2394 199.454H48.2529Z" stroke="#263238" stroke-miterlimit="10"/>
<path d="M110.864 75.293V74.4345C110.864 69.9999 116.482 69.8039 116.482 66.6469C116.482 65.2949 115.366 64.3823 113.703 64.3823C111.885 64.3823 110.736 65.3693 110.736 66.7754V67.1269C110.736 67.4784 110.546 67.6339 110.195 67.6339L106.815 67.5055C106.497 67.5055 106.274 67.35 106.274 67.1269V66.7754C106.274 62.9154 109.336 60.2655 113.832 60.2655C118.327 60.2655 121.004 62.7532 121.004 66.4847C121.004 71.7845 115.292 71.8183 115.292 74.7184V75.293C115.301 75.3661 115.293 75.4402 115.268 75.5098C115.244 75.5794 115.205 75.6426 115.153 75.6946C115.101 75.7467 115.037 75.7863 114.968 75.8104C114.898 75.8345 114.824 75.8425 114.751 75.8338H111.371C111.301 75.8372 111.23 75.8252 111.165 75.7987C111.1 75.7723 111.041 75.7319 110.993 75.6805C110.944 75.6291 110.908 75.5678 110.886 75.5009C110.864 75.434 110.856 75.363 110.864 75.293ZM110.58 80.4306C110.55 79.8904 110.683 79.3538 110.962 78.89C111.24 78.4262 111.651 78.0566 112.142 77.8289C112.633 77.6013 113.181 77.5261 113.715 77.613C114.248 77.6999 114.744 77.945 115.137 78.3166C115.53 78.6881 115.803 79.1691 115.92 79.6972C116.037 80.2254 115.993 80.7765 115.793 81.2793C115.594 81.7821 115.248 82.2135 114.801 82.5178C114.353 82.822 113.825 82.985 113.284 82.9859C112.586 83.0096 111.907 82.7552 111.396 82.2787C110.885 81.8021 110.584 81.1423 110.56 80.4441L110.58 80.4306Z" fill="#263238"/>
<path d="M210.912 260.618V259.76C210.912 255.325 216.53 255.136 216.53 251.972C216.53 250.62 215.414 249.708 213.751 249.708C211.933 249.708 210.784 250.695 210.784 252.101V252.452C210.784 252.804 210.594 252.966 210.243 252.966L206.863 252.838C206.545 252.838 206.322 252.675 206.322 252.452V252.101C206.322 248.241 209.384 245.591 213.88 245.591C218.375 245.591 221.126 248.079 221.126 251.817C221.126 257.11 215.414 257.144 215.414 260.044V260.618C215.423 260.692 215.415 260.766 215.39 260.836C215.366 260.906 215.327 260.969 215.275 261.022C215.223 261.074 215.16 261.115 215.091 261.139C215.021 261.164 214.947 261.173 214.873 261.166H211.493C211.417 261.18 211.338 261.177 211.263 261.155C211.188 261.133 211.12 261.094 211.063 261.04C211.006 260.987 210.963 260.921 210.937 260.847C210.911 260.774 210.902 260.696 210.912 260.618V260.618ZM210.628 265.756C210.598 265.216 210.731 264.679 211.01 264.215C211.288 263.752 211.699 263.382 212.19 263.154C212.681 262.927 213.229 262.851 213.762 262.938C214.296 263.025 214.792 263.27 215.185 263.642C215.578 264.013 215.851 264.494 215.968 265.023C216.085 265.551 216.041 266.102 215.841 266.605C215.642 267.107 215.296 267.539 214.849 267.843C214.401 268.147 213.873 268.31 213.332 268.311C212.636 268.328 211.962 268.068 211.457 267.589C210.952 267.111 210.656 266.452 210.635 265.756H210.628Z" stroke="#263238" stroke-miterlimit="10"/>
<path d="M184.447 276.004C184.399 275.862 184.352 275.72 184.298 275.578C184.244 275.436 184.203 275.287 184.149 275.145C184.095 275.003 184.055 274.862 184 274.72C183.946 274.578 183.906 274.429 183.852 274.287C183.798 274.145 183.757 274.003 183.703 273.861C183.649 273.719 183.608 273.57 183.554 273.428L183.406 273.003C183.358 272.854 183.304 272.712 183.257 272.57L183.108 272.144C183.061 271.995 183.007 271.853 182.959 271.711L182.811 271.285C182.763 271.137 182.709 270.995 182.662 270.853L182.52 270.4C182.473 270.251 182.419 270.109 182.371 269.967L182.216 269.541C182.168 269.393 182.121 269.251 182.067 269.109C182.013 268.967 181.972 268.825 181.918 268.683C181.864 268.541 181.824 268.392 181.77 268.25C181.716 268.108 181.675 267.966 181.621 267.824C179.417 261.118 172.603 256.197 165.106 256.197C157.839 256.197 151.519 260.429 148.882 266.391C148.815 266.526 148.754 266.668 148.693 266.804L148.51 267.223C148.443 267.358 148.382 267.493 148.321 267.635C148.26 267.777 148.193 267.912 148.132 268.047L147.949 268.46C147.882 268.602 147.821 268.737 147.76 268.879C147.699 269.021 147.632 269.149 147.571 269.291C147.51 269.433 147.442 269.562 147.382 269.704L147.199 270.116C147.131 270.251 147.071 270.393 147.01 270.528C146.949 270.664 146.881 270.806 146.82 270.941L146.638 271.36C146.57 271.495 146.509 271.63 146.449 271.772C146.388 271.914 146.32 272.049 146.259 272.185L146.077 272.597C146.009 272.739 145.948 272.874 145.888 273.016C145.827 273.158 145.759 273.286 145.698 273.428L145.516 273.841C145.448 273.976 145.387 274.118 145.326 274.253C145.266 274.388 145.198 274.53 145.137 274.672C143.977 277.142 143.382 279.839 143.393 282.568C143.393 293.452 152.79 302.348 164.41 302.348C175.78 302.348 185.67 293.452 185.67 282.568C185.668 280.493 185.304 278.434 184.595 276.484C184.548 276.288 184.501 276.146 184.447 276.004Z" fill="#263238"/>
<path d="M168.365 126.277C133.503 126.277 109.769 146.793 109.769 176.713V179.417C109.775 179.864 109.897 180.302 110.122 180.688C110.347 181.074 110.668 181.395 111.053 181.621C111.199 181.761 111.358 181.888 111.526 181.999C111.673 182.142 111.834 182.269 112.006 182.378C112.153 182.52 112.314 182.647 112.486 182.757C112.632 182.9 112.793 183.027 112.966 183.135C113.11 183.277 113.269 183.404 113.44 183.514C113.586 183.658 113.747 183.787 113.919 183.899C114.068 184.039 114.228 184.166 114.399 184.278C114.546 184.42 114.707 184.546 114.879 184.656C115.024 184.798 115.182 184.925 115.353 185.035C115.511 185.188 115.686 185.324 115.873 185.44C116.011 185.566 116.158 185.681 116.313 185.785C116.461 185.925 116.621 186.052 116.792 186.164C116.938 186.304 117.097 186.431 117.266 186.542C117.414 186.683 117.575 186.809 117.746 186.921C117.893 187.063 118.053 187.19 118.226 187.299C118.37 187.441 118.529 187.568 118.699 187.678C118.846 187.82 119.006 187.947 119.179 188.056C119.323 188.198 119.482 188.325 119.652 188.435C119.8 188.575 119.961 188.702 120.132 188.813C120.276 188.955 120.435 189.082 120.605 189.192C121.386 189.879 122.405 190.234 123.444 190.179L145.184 190.99C147.422 190.99 148.639 189.976 148.639 187.739V185.508C148.639 176.564 155.953 170.271 167.567 170.271C178.133 170.271 185.244 175.956 185.244 184.697C185.244 185.693 185.149 186.686 184.96 187.664C174.05 201.968 145.651 208.276 145.651 236.039V242.718C145.651 245.422 147.131 246.916 149.856 246.916H176.03C178.734 246.916 180.235 245.435 180.235 242.718V238.263C180.235 215.766 224.493 215.515 224.493 174.476C224.493 145.556 202.482 126.277 168.365 126.277Z" fill="#263238"/>
<path d="M145.617 242.731V236.052C145.617 201.685 189.131 200.224 189.131 175.726C189.131 165.093 180.478 158.15 167.621 158.15C153.526 158.15 144.637 165.816 144.637 176.693V179.397C144.637 182.101 143.15 183.358 140.432 183.358L113.974 182.364C111.506 182.364 109.776 181.127 109.776 179.397V176.693C109.776 146.773 133.51 126.256 168.371 126.256C202.489 126.256 224.479 145.536 224.479 174.469C224.479 215.509 180.222 215.759 180.222 238.256V242.711C180.222 245.415 178.734 246.909 176.017 246.909H149.822C147.098 246.929 145.617 245.449 145.617 242.731ZM143.393 282.568C143.393 271.691 153.033 262.788 164.653 262.788C175.78 262.788 185.67 271.691 185.67 282.568C185.67 293.445 175.76 302.314 164.41 302.314C152.776 302.314 143.393 293.418 143.393 282.568Z" fill="#0042C1" stroke="#0042C1" stroke-miterlimit="10"/>
<path d="M163.328 324.48C183.717 324.48 200.245 320.785 200.245 316.226C200.245 311.667 183.717 307.972 163.328 307.972C142.94 307.972 126.412 311.667 126.412 316.226C126.412 320.785 142.94 324.48 163.328 324.48Z" fill="#263238"/>
<path d="M135.112 129.015L133.699 132.097C133.699 132.097 125.493 132.983 125.493 133.598C125.493 134.213 125.58 138.451 126.027 138.627C126.366 138.759 126.742 138.759 127.081 138.627L139.168 135.538L140.317 130.069L135.112 129.015Z" fill="white" stroke="#263238" stroke-linecap="round" stroke-linejoin="round"/>
<path d="M132.814 134.524C131.313 135.754 129.694 136.831 127.98 137.742C126.027 138.621 125.952 139.952 126.574 139.952C127.196 139.952 132.712 137.64 132.712 137.64C132.712 137.64 137.721 136.329 138.445 135.93C139.168 135.531 139.249 133.314 139.249 133.314" fill="white"/>
<path d="M132.814 134.524C131.313 135.754 129.694 136.831 127.98 137.742C126.027 138.621 125.952 139.952 126.574 139.952C127.196 139.952 132.712 137.64 132.712 137.64C132.712 137.64 137.721 136.329 138.445 135.93C139.168 135.531 139.249 133.314 139.249 133.314" stroke="#263238" stroke-linecap="round" stroke-linejoin="round"/>
<path d="M142.332 69.7834L137.289 108.437L133.78 129.366L141.568 131.205L147.375 106.45L150.126 90.8679L142.332 69.7834Z" fill="#7D7D7D" stroke="#263238" stroke-linecap="round" stroke-linejoin="round"/>
<path d="M183.027 41.7971L179.951 41.3104L173.651 38.9241L173.421 46.4074L183.189 47.3065L183.027 41.7971Z" fill="white" stroke="#263238" stroke-linecap="round" stroke-linejoin="round"/>
<path d="M147.071 178.869C144.778 181.542 142.636 184.341 140.655 187.252C138.053 191.227 138.972 195.499 142.183 196.574C145.394 197.649 149.511 194.735 150.586 192.444C151.661 190.152 151.35 188.935 153.026 186.643C154.703 184.352 156.082 182.06 155.473 179.005C154.865 175.949 148.72 176.733 147.071 178.869Z" fill="#7D7D7D" stroke="#263238" stroke-linecap="round" stroke-linejoin="round"/>
<path d="M150.275 193.018C150.058 192.559 149.808 192.072 149.511 191.551C147.057 187.232 142.751 187.576 140.047 188.381C138.269 192.011 139.283 195.621 142.197 196.594C145.11 197.568 148.869 195.188 150.275 193.018Z" fill="white" stroke="#263238" stroke-linecap="round" stroke-linejoin="round"/>
<path d="M149.511 191.551C148.598 192.903 147.375 196.594 142.636 195.067C141.315 194.727 140.133 193.983 139.256 192.937C139.358 193.762 139.689 194.541 140.211 195.187C140.733 195.833 141.426 196.321 142.21 196.594C145.414 197.662 149.538 194.756 150.613 192.464C151.688 190.172 151.377 188.955 153.053 186.664C154.73 184.372 156.109 182.081 155.5 179.025C155.5 182.689 154.148 183.297 152.445 185.285C150.741 187.272 150.43 190.172 149.511 191.551Z" fill="white" stroke="#263238" stroke-linecap="round" stroke-linejoin="round"/>
<path d="M192.153 178.869C194.445 181.542 196.587 184.341 198.568 187.252C201.171 191.227 200.251 195.499 197.04 196.574C193.829 197.649 189.713 194.735 188.638 192.444C187.563 190.152 187.874 188.935 186.197 186.643C184.521 184.352 183.142 182.06 183.75 179.005C184.359 175.949 190.477 176.733 192.153 178.869Z" fill="#7D7D7D" stroke="#263238" stroke-linecap="round" stroke-linejoin="round"/>
<path d="M188.956 193.018C189.165 192.559 189.415 192.072 189.713 191.551C192.167 187.232 196.473 187.576 199.177 188.381C200.955 192.011 199.941 195.621 197.027 196.594C194.113 197.568 190.355 195.188 188.956 193.018Z" fill="white" stroke="#263238" stroke-linecap="round" stroke-linejoin="round"/>
<path d="M189.713 191.551C190.625 192.903 191.849 196.594 196.588 195.067C197.909 194.727 199.091 193.983 199.968 192.937C199.865 193.762 199.534 194.541 199.012 195.187C198.49 195.833 197.798 196.321 197.013 196.594C193.809 197.662 189.686 194.756 188.611 192.464C187.536 190.172 187.847 188.955 186.17 186.664C184.494 184.372 183.115 182.081 183.723 179.025C183.723 182.689 185.075 183.297 186.779 185.285C188.482 187.272 188.793 190.172 189.713 191.551Z" fill="white" stroke="#263238" stroke-linecap="round" stroke-linejoin="round"/>
<path d="M199.319 126.162C199.319 123.411 194.587 120.355 194.587 120.355C187.455 113.102 174.584 114.061 169.831 114.71C165.099 114.034 152.215 113.102 145.083 120.355C145.083 120.355 140.351 123.411 140.351 126.162C140.351 128.913 146.313 178.565 146.313 178.565C146.313 178.565 146.158 181.161 150.437 181.465C154.716 181.77 156.521 179.329 156.521 179.329L158.204 137.316C158.204 137.316 165.079 132.422 166.316 132.273C166.762 132.212 167.344 132.117 167.993 132.036V132.117C169.203 131.865 170.453 131.865 171.663 132.117V132.036C172.339 132.117 172.887 132.212 173.34 132.273C174.563 132.422 181.452 137.316 181.452 137.316L183.135 179.329C183.135 179.329 184.967 181.77 189.219 181.465C193.471 181.161 193.343 178.565 193.343 178.565C193.343 178.565 199.319 128.913 199.319 126.162Z" fill="#263238" stroke="#263238" stroke-linecap="round" stroke-linejoin="round"/>
<path d="M181.445 137.316C181.445 137.316 180.526 127.23 184.96 123.411" stroke="#707070" stroke-linecap="round" stroke-linejoin="round"/>
<path d="M158.225 137.316C158.225 137.316 158.684 128.913 157.765 125.858C156.846 122.802 155.318 121.578 155.318 121.578" stroke="#707070" stroke-linecap="round" stroke-linejoin="round"/>
<path d="M163.876 117.299C163.876 117.299 168.763 122.951 169.683 127.69" stroke="#707070" stroke-linecap="round" stroke-linejoin="round"/>
<path d="M174.57 117.624C174.57 117.624 171.819 120.679 171.515 122.971" stroke="#707070" stroke-linecap="round" stroke-linejoin="round"/>
<path d="M167.695 58.1765C167.695 58.1765 163.268 57.5613 161.74 59.0891C160.212 60.6168 155.014 66.2479 155.014 66.2479L157.765 114.832C157.765 114.832 164.031 117.279 169.379 117.279C174.726 117.279 180.837 115.292 182.223 114.224C183.608 113.156 182.378 61.0562 182.378 61.0562C182.378 61.0562 171.028 57.7168 167.695 58.1765Z" fill="#0042C1" stroke="#263238" stroke-linecap="round" stroke-linejoin="round"/>
<path d="M175.794 59.2446C178.12 58.8914 180.466 58.6859 182.817 58.6294C185.873 58.6294 188.901 58.7849 188.901 58.7849L196.54 51.4503L181.168 47.9351L182.392 40.9114C182.392 40.9114 193.694 40.1476 199.346 41.2156C204.997 42.2837 213.859 45.035 214.319 45.035C214.779 45.035 215.387 46.7183 214.927 47.9351C214.468 49.1519 200.096 65.0514 195.803 69.175C192.995 71.9269 190.344 74.8337 187.86 77.8819L185.9 111.952C185.9 111.952 190.943 114.704 191.862 115.616C192.782 116.529 193.85 120.199 193.85 120.199C193.85 120.199 184.528 116.38 182.081 116.076C179.633 115.772 178.112 115.616 177.653 114.724C177.193 113.832 173.374 73.0147 173.374 73.0147L173.529 60.0287C173.529 60.0287 173.502 59.2446 175.794 59.2446Z" fill="#7D7D7D" stroke="#263238" stroke-linecap="round" stroke-linejoin="round"/>
<path d="M184.96 80.1736L176.706 81.2417L177.47 84.2972L181.601 85.3653L185.569 83.5333L184.96 80.1736Z" stroke="#263238" stroke-linecap="round" stroke-linejoin="round"/>
<path d="M189.692 61.8405L187.86 77.8819L192.599 64.2876" stroke="#263238" stroke-linecap="round" stroke-linejoin="round"/>
<path d="M196.567 51.4502C196.567 51.4502 200.387 52.2141 206.193 49.9225" stroke="#263238" stroke-linecap="round" stroke-linejoin="round"/>
<path d="M200.542 52.5184C203.051 52.5883 205.561 52.3843 208.025 51.91" stroke="#263238" stroke-linecap="round" stroke-linejoin="round"/>
<path d="M162.504 58.021L163.267 69.175C163.964 70.0909 164.866 70.8305 165.9 71.3342C166.934 71.8379 168.073 72.0916 169.223 72.075C173.042 71.9263 173.502 69.175 173.502 69.175V60.0084L162.504 58.021Z" fill="white" stroke="#263238" stroke-linecap="round" stroke-linejoin="round"/>
<path d="M173.651 63.8278L173.347 73.0079L176.558 67.9649C176.558 67.9649 180.073 72.3927 180.985 72.244C181.898 72.0953 180.377 70.2566 180.073 68.5801C179.769 66.9036 177.166 60.9345 176.862 59.2581C176.558 57.5816 173.651 57.2706 173.482 58.0345C173.397 58.6943 173.397 59.3622 173.482 60.0219L173.651 63.8278Z" fill="#7D7D7D" stroke="#263238" stroke-linecap="round" stroke-linejoin="round"/>
<path d="M163.112 72.0751C163.112 72.0751 163.72 114.852 162.193 115.339C160.665 115.826 154.554 115.954 150.701 117.786C146.847 119.618 145.049 120.382 145.049 120.382C145.049 120.382 146.881 115.954 149.024 113.967C150.448 112.687 152.04 111.606 153.756 110.756L149.788 90.2865C149.788 90.2865 142.453 70.8785 142.298 69.8105C142.142 68.7424 156.203 60.7994 159.103 59.4203C162.003 58.0413 162.774 59.2716 162.774 59.2716L163.112 72.0751Z" fill="#7D7D7D" stroke="#263238" stroke-linecap="round" stroke-linejoin="round"/>
<path d="M159.293 57.2572C159.293 57.2572 155.629 68.8709 155.318 70.3986C155.007 71.9264 155.318 71.9264 156.393 70.8515C157.467 69.7767 160.212 67.1876 160.212 67.1876L163.112 72.0751L162.957 63.064V57.8656C162.957 57.8656 162.808 55.7294 159.293 57.2572Z" fill="#7D7D7D" stroke="#263238" stroke-linecap="round" stroke-linejoin="round"/>
<path d="M152.113 82.3164H161.125L160.976 85.9803L157.001 87.3526L151.958 85.9803L152.113 82.3164Z" stroke="#263238" stroke-linecap="round" stroke-linejoin="round"/>
<path d="M176.862 42.135C176.862 42.135 178.998 51.4503 179.458 52.951C179.917 54.4517 177.017 60.4411 176.078 61.8134C175.72 62.4085 175.228 62.9117 174.641 63.2826C174.054 63.6536 173.389 63.882 172.698 63.9495C171.63 63.9495 165.823 61.9688 164.444 61.0495C163.065 60.1301 161.699 59.062 161.699 59.062C161.049 59.3584 160.327 59.4586 159.621 59.3506C158.915 59.2425 158.256 58.9308 157.724 58.4536C155.892 56.7704 153.445 54.783 154.054 53.4107C154.35 52.7373 154.846 52.1712 155.475 51.7892C156.104 51.4071 156.835 51.2274 157.569 51.2745C159.252 51.2745 158.644 51.119 158.644 51.119C158.644 51.119 155.588 46.6912 155.588 43.176C155.588 39.6608 162.152 37.092 165.971 37.092C168.612 37.2021 171.207 37.8243 173.61 38.924L176.862 42.135Z" fill="white" stroke="#263238" stroke-linecap="round" stroke-linejoin="round"/>
<path d="M171.515 45.6434L174.266 50.8419L171.515 52.6738L170.291 51.1461" stroke="#263238" stroke-linecap="round" stroke-linejoin="round"/>
<path d="M176.558 50.3822C176.558 50.3822 176.706 51.6058 174.874 53.5932" stroke="#263238" stroke-linecap="round" stroke-linejoin="round"/>
<path d="M168.615 47.5566C168.615 48.2731 168.304 48.8545 167.939 48.8545C167.574 48.8545 167.263 48.2731 167.263 47.5566C167.263 46.84 167.574 46.2587 167.939 46.2587C168.304 46.2587 168.615 46.84 168.615 47.5566Z" fill="#263238"/>
<path d="M173.421 46.4074C173.802 46.4074 174.111 45.8263 174.111 45.1094C174.111 44.3926 173.802 43.8115 173.421 43.8115C173.04 43.8115 172.732 44.3926 172.732 45.1094C172.732 45.8263 173.04 46.4074 173.421 46.4074Z" fill="#263238"/>
<path d="M160.361 34.1853C160.361 34.1853 150.748 37.7005 150.43 42.135C150.113 46.5696 158.988 52.6739 159.448 53.4377C159.908 54.2016 161.28 52.5184 161.28 52.5184C160.975 52.1079 160.761 51.6362 160.655 51.1357C160.549 50.6351 160.552 50.1175 160.665 49.6183C161.125 48.0906 163.112 46.2383 163.112 45.4947C163.112 44.7511 160.82 46.1031 160.82 43.8115C160.82 41.5199 166.472 40.1476 169.831 40.2963C173.191 40.445 176.098 46.1031 178.545 43.3518C180.992 40.6005 177.47 39.8434 177.47 39.8434C177.47 39.8434 182.202 39.2282 182.202 36.7879C182.202 34.3475 179.755 32.6575 178.687 32.6575C177.619 32.6575 174.719 34.4962 174.719 32.5088C174.719 30.5213 177.619 29.602 174.868 26.4248C172.116 23.2476 168.608 26.4248 168.608 27.6483C168.608 28.8719 167.689 31.1568 167.08 31.1568C166.472 31.1568 164.633 28.4122 162.497 29.94C161.855 30.4507 161.331 31.0948 160.962 31.8278C160.593 32.5608 160.388 33.3652 160.361 34.1853Z" fill="#263238" stroke="#263238" stroke-linecap="round" stroke-linejoin="round"/>
<path d="M164.336 45.9544L169.223 44.1157" stroke="#263238" stroke-linecap="round" stroke-linejoin="round"/>
<path d="M169.987 41.9796C169.893 41.5 169.97 41.0028 170.203 40.5735" stroke="#263238" stroke-linecap="round" stroke-linejoin="round"/>
<path d="M170.203 40.56C170.548 39.884 171.325 39.0119 173.042 38.3021" stroke="white" stroke-linecap="round" stroke-linejoin="round"/>
</svg>
